<?xml version="1.0" encoding="UTF-8"?>
<svg width="362px" height="182px" viewBox="0 0 362 182" version="1.1" xmlns="http://www.w3.org/2000/svg" xmlns:xlink="http://www.w3.org/1999/xlink">
    <title>Untitled</title>
    <g id="Page-1" stroke="none" stroke-width="1" fill="none" fill-rule="evenodd">
        <g id="logo" fill="#FFFFFF" fill-rule="nonzero">
            <polygon id="Path" points="0 72.69 11.27 72.69 11.27 3.24 0 3.24 0 1.82 32.69 1.82 32.69 3.24 21.42 3.24 21.42 36.44 55.23 36.44 55.23 3.24 44 3.24 44 1.82 76.69 1.82 76.69 3.24 65.38 3.24 65.38 72.69 76.65 72.69 76.65 74.11 44 74.11 44 72.69 55.27 72.69 55.27 37.86 21.42 37.86 21.42 72.69 32.69 72.69 32.69 74.11 0 74.11"></polygon>
            <path d="M78.07,72.69 L87,72.69 L114.41,0 L116.84,0 L144.46,72.69 L153.46,72.69 L153.46,74.11 L122.24,74.11 L122.24,72.69 L133.5,72.69 L122.84,44.46 L99.29,44.46 L88.63,72.69 L99.9,72.69 L99.9,74.11 L78.07,74.11 L78.07,72.69 Z M111.07,13.5 L99.9,43.04 L122.24,43.04 L111.07,13.5 Z" id="Shape"></path>
            <path d="M162.64,72.69 L173.91,72.69 L173.91,3.24 L168,3.24 C166.470146,3.25353232 164.943103,3.3738246 163.43,3.6 C161.601259,3.89766439 159.856301,4.5792884 158.31,5.6 C156.307055,6.94648811 154.604645,8.69316125 153.31,10.73 C151.434809,13.7216095 150.047472,16.9924845 149.2,20.42 L148.08,20.42 L148.08,1.82 L209.81,1.82 L209.81,20.4 L208.69,20.4 C207.842528,16.9724845 206.455191,13.7016095 204.58,10.71 C203.282865,8.67513265 201.58091,6.92892654 199.58,5.58 C198.029324,4.56067128 196.281418,3.87922665 194.45,3.58 C192.936897,3.3538246 191.409854,3.23353232 189.88,3.22 L183.99,3.22 L183.99,72.67 L195.26,72.67 L195.26,74.09 L162.64,74.09 L162.64,72.69 Z" id="Path"></path>
            <path d="M276.7,74.11 L275.18,74.11 C274.693497,73.5640965 274.150459,73.0713396 273.56,72.64 C272.69913,72.135527 271.704993,71.905306 270.71,71.98 C269.588613,71.9964775 268.476116,72.1818938 267.41,72.53 C266.23,72.91 264.88,73.33 263.35,73.8 C261.668292,74.3182663 259.958967,74.7422591 258.23,75.07 C256.152773,75.4579452 254.043086,75.645473 251.93,75.63 C247.676783,75.639196 243.458761,74.8593367 239.49,73.33 C235.203599,71.5952137 231.317298,69.0020771 228.07,65.71 C224.667697,62.2713851 221.856551,58.2945586 219.75,53.94 C217.431171,49.0229863 216.284454,43.6351304 216.4,38.2 C216.37917,28.3168979 220.073383,18.7869007 226.75,11.5 C229.991437,7.9867171 233.887662,5.14012912 238.22,3.12 C242.738423,1.03452975 247.663782,-0.0209042118 252.64,0.03 C254.520616,0.00587475686 256.397342,0.207312265 258.23,0.63 C259.711318,0.996398137 261.167635,1.45734257 262.59,2.01 L266.14,3.38 C267.145876,3.76727858 268.212267,3.97378615 269.29,3.99 C270.298653,4.07768801 271.309409,3.84685777 272.18,3.33 C272.75607,2.89220608 273.285529,2.3962573 273.76,1.85 L275.28,1.85 L275.28,22.13 L274.16,22.13 C273.552613,19.5412917 272.774239,16.9957076 271.83,14.51 C270.907078,12.0709917 269.552082,9.81831051 267.83,7.86 C266.036261,5.86270058 263.837411,4.27066505 261.38,3.19 C255.290368,0.865081445 248.563854,0.829547827 242.45,3.09 C240.002777,4.12407215 237.791326,5.64487003 235.95,7.56 C234.168615,9.45697195 232.74262,11.6586276 231.74,14.06 C230.674516,16.5733587 229.873534,19.1907947 229.35,21.87 C228.806367,24.619123 228.452201,27.4023394 228.29,30.2 C228.123333,33.0133333 228.036667,35.68 228.03,38.2 C227.910122,44.1342184 228.490802,50.0618576 229.76,55.86 C230.603036,59.8375009 232.242639,63.6031448 234.58,66.93 C236.469819,69.5025592 239.059309,71.4776531 242.04,72.62 C245.134287,73.7312788 248.402454,74.2799244 251.69,74.24 C255.452699,74.3937603 259.204391,73.7355088 262.69,72.31 C265.275588,71.1763902 267.567433,69.4660584 269.39,67.31 C271.089803,65.2295704 272.397687,62.8577599 273.25,60.31 C274.13,57.71 274.91,55.12 275.59,52.54 L276.7,52.54 L276.7,74.11 Z" id="Path"></path>
            <polygon id="Path" points="285.2 72.69 296.47 72.69 296.47 3.24 285.2 3.24 285.2 1.82 317.89 1.82 317.89 3.24 306.62 3.24 306.62 36.44 340.43 36.44 340.43 3.24 329.16 3.24 329.16 1.82 361.85 1.82 361.85 3.24 350.58 3.24 350.58 72.69 361.85 72.69 361.85 74.11 329.16 74.11 329.16 72.69 340.43 72.69 340.43 37.86 306.62 37.86 306.62 72.69 317.89 72.69 317.89 74.11 285.2 74.11"></polygon>
            <path d="M51.47,146.82 C53.3249824,143.777035 54.6757463,140.454156 55.47,136.98 C56.1764134,133.777962 56.5351576,130.509031 56.54,127.23 C56.5833502,124.632095 56.4295757,122.034643 56.08,119.46 C55.9070619,117.887835 55.3694606,116.377757 54.51,115.05 C53.7895007,114.037583 52.7216539,113.325685 51.51,113.05 C49.9561395,112.716114 48.3690768,112.56177 46.78,112.59 L46.78,111.17 L66.07,111.17 L66.07,112.59 C64.6166804,112.537439 63.1677148,112.778933 61.81,113.3 C60.7564886,113.752895 59.8814261,114.5401 59.32,115.54 C58.6875492,116.750556 58.3097843,118.077839 58.21,119.44 C58.0236708,121.347517 57.9368865,123.263449 57.95,125.18 C57.9686439,127.655863 57.8350586,130.130531 57.55,132.59 C57.3036133,134.591842 56.9295172,136.575887 56.43,138.53 C55.9787586,140.276389 55.366122,141.977042 54.6,143.61 C53.86,145.2 53.04,146.77 52.17,148.33 C53.5568412,150.980973 55.1134129,153.53963 56.83,155.99 C58.19,157.86 59.74,158.79 61.51,158.79 C62.4577909,158.836364 63.3853875,158.505593 64.09,157.87 C64.7636515,157.223754 65.271362,156.424452 65.57,155.54 C65.9148409,154.534458 66.1528202,153.495394 66.28,152.44 C66.4101754,151.344771 66.4769534,150.242934 66.48,149.14 L67.9,149.14 C67.9752554,151.542907 67.5952401,153.938361 66.78,156.2 C66.1617129,157.878834 65.2168453,159.418493 64,160.73 C62.955181,161.845759 61.6493463,162.684242 60.2,163.17 C58.8898545,163.62211 57.5158402,163.861802 56.13,163.88 C54.8973579,163.906501 53.667523,163.751508 52.48,163.42 C51.4945665,163.138322 50.5784973,162.654747 49.79,162 C48.959475,161.308454 48.2261774,160.507881 47.61,159.62 C46.93,158.62 46.19,157.55 45.37,156.27 C44.4384121,157.194308 43.4352947,158.043614 42.37,158.81 C41.0697711,159.732595 39.6950283,160.545399 38.26,161.24 C36.654319,162.018221 34.9806413,162.647524 33.26,163.12 C31.3404294,163.640336 29.3587795,163.896033 27.37,163.88 C23.62743,164.00389 19.9176771,163.145406 16.61,161.39 C13.8776264,159.888501 11.4790475,157.847157 9.56,155.39 C7.82539579,153.187932 6.53177183,150.671986 5.75,147.98 C5.07390729,145.82508 4.69705106,143.587496 4.63,141.33 C4.56221047,138.14856 5.20445115,134.992016 6.51,132.09 C7.70886696,129.52786 9.3203035,127.179959 11.28,125.14 C13.1876354,123.157339 15.3185014,121.402311 17.63,119.91 C19.93,118.423333 22.1633333,117.07 24.33,115.85 C23.4609838,114.152708 22.6832101,112.410228 22,110.63 C21.2047777,108.29439 20.8289879,105.836522 20.89,103.37 C20.8507564,101.260455 21.2633241,99.1669292 22.1,97.23 C22.8682816,95.5157001 23.9348336,93.9514239 25.25,92.61 C26.5137279,91.34651 28.0162337,90.3471057 29.67,89.67 C31.2553068,89.013136 32.9539999,88.6733974 34.67,88.67 C37.0852826,88.6142638 39.429835,89.4876543 41.22,91.11 C43.0066667,92.73 43.9033333,95.2666667 43.91,98.72 C43.9359566,100.54562 43.5959336,102.357943 42.91,104.05 C42.3054488,105.499982 41.4825939,106.848924 40.47,108.05 C39.5194583,109.202983 38.4080893,110.213319 37.17,111.05 C35.95,111.856667 34.8,112.566667 33.72,113.18 L51.47,146.82 Z M24.88,116.98 C21.6998694,118.550196 18.840879,120.700374 16.45,123.32 C14.2608705,125.984015 13.1383904,129.365708 13.3,132.81 C13.3342276,136.075886 13.8843458,139.315846 14.93,142.41 C15.9555319,145.641204 17.3869662,148.729205 19.19,151.6 C20.788423,154.188147 22.7942324,156.501244 25.13,158.45 C26.9639657,160.096614 29.3169969,161.048442 31.78,161.140166 C34.1791881,161.151767 36.5400521,160.538287 38.63,159.36 C40.8016893,158.139146 42.8165356,156.658234 44.63,154.95 L24.88,116.98 Z M28.53,98.33 C28.6212297,100.500297 29.1199005,102.634065 30,104.62 C31,107.06 32.08,109.49 33.3,111.93 C34.45,111.26 35.59,110.55 36.7,109.8 C37.8230519,109.070559 38.833692,108.181196 39.7,107.16 C40.5750372,106.092946 41.2769342,104.894997 41.78,103.61 C42.3496716,102.082179 42.6245247,100.460206 42.59,98.83 C42.6278551,96.6819825 42.0482284,94.568254 40.92,92.74 C39.8,90.98 37.8866667,90.1 35.18,90.1 C33.3620433,90.1278198 31.6580723,90.99087 30.56,92.44 C29.1877445,94.0901092 28.4658005,96.1848137 28.53,98.33 L28.53,98.33 Z" id="Shape"></path>
            <polygon id="Path" points="83.86 170.07 134.62 170.07 134.62 173.22 83.86 173.22"></polygon>
            <polygon id="Path" points="133.1 170.07 183.86 170.07 183.86 173.22 133.1 173.22"></polygon>
            <polygon id="Path" points="182.34 170.07 233.1 170.07 233.1 173.22 182.34 173.22"></polygon>
            <polygon id="Path" points="231.58 170.07 282.34 170.07 282.34 173.22 231.58 173.22"></polygon>
            <polygon id="Path" points="280.81 170.07 331.57 170.07 331.57 173.22 280.81 173.22"></polygon>
            <path d="M339.09,179.82 C340.818716,178.599951 342.432115,177.22421 343.91,175.71 C345.023459,174.566997 346.00926,173.306246 346.85,171.95 C347.479827,170.962171 347.961605,169.887436 348.28,168.76 C348.490099,167.96283 348.607542,167.144086 348.63,166.32 C348.71571,164.391021 348.061062,162.5022 346.8,161.04 C345.893738,162.593757 344.238607,163.557984 342.44,163.58 C341.060559,163.544571 339.734358,163.040191 338.68,162.15 C337.44251,161.177561 336.759038,159.661224 336.85,158.09 C336.848745,156.547144 337.494414,155.074438 338.63,154.03 C339.810371,152.882938 341.404773,152.262492 343.05,152.31 C344.277119,152.294334 345.485913,152.60862 346.55,153.22 C347.587304,153.821853 348.500286,154.616046 349.24,155.56 C350.00611,156.560817 350.576118,157.69744 350.92,158.91 C351.28376,160.161021 351.468923,161.457167 351.47,162.76 C351.463269,164.768205 351.051737,166.754442 350.26,168.6 C349.471523,170.477739 348.482449,172.264779 347.31,173.93 C346.222019,175.487839 344.964302,176.91996 343.56,178.2 C342.438372,179.225439 341.249019,180.174249 340,181.04 L339.09,179.82 Z" id="Path"></path>
            <path d="M170,147.51 L170.48,147.51 C170.745698,147.486883 171.011092,147.557655 171.23,147.71 C171.40331,147.879788 171.491385,148.118324 171.47,148.36 C171.483784,148.598769 171.400889,148.833038 171.24,149.01 C171.070741,149.176848 170.836745,149.26094 170.6,149.24 L164.54,149.24 C164.303432,149.259582 164.069987,149.175688 163.9,149.01 C163.741729,148.832031 163.662353,148.59751 163.68,148.36 C163.656976,148.115141 163.745072,147.872877 163.92,147.7 C164.161896,147.549645 164.446477,147.482892 164.73,147.51 L166,147.51 L166,136.42 L165.22,136.42 C164.810286,136.462012 164.396696,136.396526 164.02,136.23 C163.823072,136.053908 163.725774,135.79195 163.76,135.53 C163.742353,135.29249 163.821729,135.057969 163.98,134.88 C164.149987,134.714312 164.383432,134.630418 164.62,134.65 L175.51,134.65 C175.747356,134.631456 175.979942,134.723752 176.14,134.9 C176.296449,135.110117 176.374296,135.368426 176.36,135.63 L176.36,138.81 C176.376046,139.044282 176.296702,139.275101 176.14,139.45 C175.970684,139.609329 175.741692,139.689295 175.51,139.67 C175.245863,139.705499 174.981883,139.603679 174.81,139.4 C174.64312,139.016348 174.577692,138.596231 174.62,138.18 L174.62,136.42 L167.9,136.42 L167.9,140.57 L171.15,140.57 L171.15,140.25 C171.121002,139.839202 171.178928,139.426904 171.32,139.04 C171.449727,138.825896 171.690881,138.705319 171.94,138.73 C172.157767,138.712276 172.370497,138.801847 172.51,138.97 C172.650206,139.193672 172.713419,139.457058 172.69,139.72 L172.69,142.84 C172.715888,143.133766 172.656884,143.428788 172.52,143.69 C172.3583,143.853759 172.133908,143.939949 171.90416,143.926547 C171.674411,143.913145 171.461563,143.801449 171.32,143.62 C171.178928,143.233096 171.121002,142.820798 171.15,142.41 L171.15,142.06 L167.9,142.06 L167.9,147.51 L170,147.51 Z" id="Path"></path>
            <path d="M183.22,147.51 L187.31,147.51 C187.562891,147.490405 187.81452,147.561286 188.02,147.71 C188.182526,147.885466 188.262547,148.121894 188.24,148.36 C188.266832,148.608996 188.190996,148.858169 188.03,149.05 C187.796773,149.203271 187.517416,149.270458 187.24,149.24 L179.19,149.24 C178.927803,149.259745 178.667625,149.181336 178.46,149.02 C178.289726,148.844176 178.202436,148.604129 178.22,148.36 C178.198255,148.119252 178.290828,147.882265 178.47,147.72 C178.698269,147.562719 178.973621,147.488585 179.25,147.51 L181.39,147.51 L181.39,139.61 L180.55,139.61 C180.048757,139.653159 179.544087,139.58837 179.07,139.42 C178.855179,139.259107 178.741149,138.996837 178.77,138.73 C178.75025,138.491508 178.838303,138.256699 179.01,138.09 C179.214733,137.923142 179.477162,137.844054 179.74,137.87 L182.55,137.87 C182.726118,137.860408 182.900858,137.90584 183.05,138 C183.168291,138.088966 183.232511,138.232517 183.22,138.38 L183.22,140.47 C183.887779,139.595221 184.715821,138.855413 185.66,138.29 C186.493836,137.82259 187.434097,137.578054 188.39,137.58 C189.010539,137.548311 189.626529,137.701439 190.16,138.02 C190.579785,138.24528 190.841232,138.683587 190.840004,139.16 C190.840136,139.461799 190.717377,139.750644 190.5,139.96 C190.314571,140.176907 190.045307,140.304262 189.76,140.31 C189.40291,140.257905 189.061572,140.128196 188.76,139.93 C188.401665,139.706573 187.991849,139.579151 187.57,139.56 C186.85277,139.5947 186.15974,139.83033 185.57,140.24 C184.690266,140.855081 183.896588,141.584861 183.21,142.41 L183.22,147.51 Z" id="Path"></path>
            <path d="M199.87,147.51 L203.82,147.51 C204.070174,147.486347 204.320084,147.55775 204.52,147.71 C204.689659,147.881591 204.77398,148.11989 204.75,148.36 C204.776832,148.608996 204.700996,148.858169 204.54,149.05 C204.303025,149.20323 204.020567,149.270314 203.74,149.24 L194.21,149.24 C193.944449,149.262292 193.680243,149.183745 193.47,149.02 C193.292624,148.848151 193.20099,148.606238 193.22,148.36 C193.202325,148.117826 193.29844,147.881234 193.48,147.72 C193.705188,147.564195 193.976891,147.490095 194.25,147.51 L198,147.51 L198,139.61 L195.6,139.61 C195.324127,139.627528 195.051063,139.545964 194.83,139.38 C194.483308,139.019881 194.483308,138.450119 194.83,138.09 C195.040243,137.926255 195.304449,137.847708 195.57,137.87 L199.17,137.87 C199.353778,137.860497 199.535835,137.909512 199.69,138.01 C199.816551,138.090089 199.892316,138.230253 199.89,138.38 L199.87,147.51 Z M197.59,134.33 C197.533438,133.762109 197.615803,133.18898 197.83,132.66 C198.090997,132.394533 198.460422,132.265234 198.83,132.31 C199.188701,132.269063 199.548854,132.373508 199.83,132.6 C200.04012,133.024072 200.123451,133.499755 200.07,133.97 C200.12533,134.418763 200.04889,134.87393 199.85,135.28 C199.558149,135.482144 199.202642,135.571021 198.85,135.53 C198.500129,135.570728 198.146921,135.48949 197.85,135.3 C197.64548,135.020366 197.552757,134.674436 197.59,134.33 L197.59,134.33 Z" id="Shape"></path>
            <path d="M208.85,144.1 C208.858194,145.141966 209.291677,146.135363 210.05,146.85 C210.893384,147.540218 211.961162,147.896144 213.05,147.85 C214.138674,147.821864 215.208956,147.562815 216.19,147.09 C216.83618,146.743597 217.525556,146.484661 218.24,146.32 C218.468709,146.313147 218.691094,146.395645 218.86,146.55 C219.020353,146.700163 219.110936,146.910316 219.11,147.13 C219.104483,147.370917 219.012154,147.601738 218.85,147.78 C218.61132,148.022688 218.329953,148.219306 218.02,148.36 C217.20767,148.751763 216.356297,149.056782 215.48,149.27 C214.629036,149.479104 213.756271,149.586521 212.88,149.59 C211.227111,149.670862 209.610489,149.087582 208.39,147.97 C207.246548,146.84254 206.632739,145.284408 206.7,143.68 C206.637275,142.024362 207.289288,140.421649 208.49,139.28 C209.754893,138.12287 211.427316,137.515043 213.14,137.59 C214.724172,137.538009 216.266376,138.104679 217.44,139.17 C218.538473,140.129762 219.163051,141.521365 219.15,142.98 C219.195524,143.312843 219.09323,143.648951 218.87,143.9 C218.376911,144.116786 217.835335,144.199575 217.3,144.14 L208.84,144.14 L208.85,144.1 Z M208.92,142.49 L216.92,142.49 C216.822582,141.57628 216.383187,140.733213 215.69,140.13 C214.978133,139.530257 214.070452,139.213458 213.14,139.24 C212.149717,139.209974 211.17795,139.512771 210.38,140.1 C209.621223,140.694696 209.102753,141.543424 208.92,142.49 L208.92,142.49 Z" id="Shape"></path>
            <path d="M222.73,147.51 L222.73,139.62 L222.49,139.62 C222.096008,139.649826 221.700789,139.581093 221.34,139.42 C221.157884,139.244685 221.054981,139.002788 221.054981,138.75 C221.054981,138.497212 221.157884,138.255315 221.34,138.08 C221.585338,137.919016 221.877622,137.845065 222.17,137.87 L223.93,137.87 C224.113778,137.860497 224.295835,137.909512 224.45,138.01 C224.568944,138.09476 224.636731,138.234101 224.63,138.38 L224.63,139.21 C225.154748,138.708686 225.755508,138.293554 226.41,137.98 C226.983713,137.715351 227.60819,137.578853 228.24,137.58 C229.33421,137.520742 230.400057,137.940511 231.16,138.73 C231.911799,139.621127 232.294582,140.765896 232.23,141.93 L232.23,147.51 L232.81,147.51 C233.119967,147.486504 233.429886,147.556149 233.7,147.71 C233.878975,147.884974 233.979865,148.124704 233.979865,148.375 C233.979865,148.625296 233.878975,148.865026 233.7,149.04 C233.39079,149.195591 233.045268,149.264695 232.7,149.24 L229.98,149.24 C229.636278,149.277852 229.288949,149.215333 228.98,149.06 C228.805811,148.870848 228.721945,148.615603 228.75,148.36 C228.722487,148.107665 228.819479,147.857725 229.01,147.69 C229.320494,147.539353 229.666464,147.477078 230.01,147.51 L230.45,147.51 L230.45,142.39 C230.503259,141.600985 230.268784,140.819402 229.79,140.19 C229.307399,139.663812 228.612529,139.384393 227.9,139.43 C227.079748,139.425777 226.287684,139.729045 225.68,140.28 C225.042877,140.794458 224.674791,141.571119 224.68,142.39 L224.68,147.51 L225,147.51 C225.343515,147.477595 225.689346,147.539844 226,147.69 C226.190521,147.857725 226.287513,148.107665 226.26,148.36 C226.290739,148.614113 226.210582,148.869159 226.04,149.06 C225.703752,149.219291 225.329735,149.281627 224.96,149.24 L222.05,149.24 C221.783099,149.260219 221.517594,149.185877 221.3,149.03 C221.117347,148.856888 221.021929,148.611005 221.04,148.36 C221.007876,148.100582 221.118877,147.844132 221.33,147.69 C221.686424,147.538999 222.0743,147.477214 222.46,147.51 L222.73,147.51 Z" id="Path"></path>
            <path d="M245.3,149.24 C245.163278,149.255515 245.026971,149.207623 244.93,149.11 C244.849699,148.956269 244.815004,148.782791 244.83,148.61 L244.83,147.61 C244.335024,148.226186 243.701022,148.716252 242.98,149.04 C242.230594,149.383877 241.414498,149.558023 240.59,149.55 C239.114292,149.580768 237.695544,148.980528 236.69,147.9 C234.55486,145.505827 234.602605,141.877166 236.8,139.54 C237.892612,138.41847 239.404861,137.805592 240.97,137.85 C241.74999,137.837619 242.523719,137.991001 243.24,138.3 C243.914281,138.59951 244.509892,139.051353 244.98,139.62 L244.98,134.91 L244.33,134.91 C243.858395,134.94734 243.384284,134.882533 242.94,134.72 C242.716391,134.560947 242.597496,134.292474 242.63,134.02 C242.609552,133.773558 242.701411,133.531049 242.88,133.36 C243.086197,133.195093 243.346514,133.113075 243.61,133.13 L246.13,133.13 C246.31904,133.117316 246.507444,133.162672 246.67,133.26 C246.785372,133.351266 246.848851,133.493161 246.84,133.64 L246.84,147.51 L247.39,147.51 C247.693529,147.487462 247.996784,147.557176 248.26,147.71 C248.450951,147.869424 248.551798,148.112203 248.53,148.36 C248.547345,148.599262 248.463967,148.834895 248.3,149.01 C248.128026,149.165885 247.901957,149.248418 247.67,149.24 L245.3,149.24 Z M237.24,143.72 C237.201601,144.75781 237.596451,145.76486 238.33,146.5 C239.070772,147.223798 240.074877,147.613882 241.11,147.58 C242.159374,147.617427 243.17592,147.210808 243.91,146.46 C244.640607,145.686394 245.032866,144.653566 245,143.59 C245.038348,142.543328 244.644125,141.527029 243.91,140.78 C243.174191,140.032861 242.157869,139.629961 241.11,139.67 C240.059527,139.626208 239.040486,140.033824 238.31,140.79 C237.579332,141.586394 237.194509,142.640162 237.24,143.72 L237.24,143.72 Z" id="Shape"></path>
            <path d="M250.52,148.33 L250.52,146.14 C250.49804,145.864991 250.568419,145.590512 250.72,145.36 C250.898179,145.194449 251.137522,145.111041 251.38,145.13 C251.72,145.13 251.98,145.36 252.18,145.82 C252.276245,146.039576 252.397012,146.247564 252.54,146.44 C252.93958,146.928638 253.465217,147.298659 254.06,147.51 C254.772334,147.779611 255.528369,147.915223 256.29,147.91 C257.023835,147.944742 257.7514,147.76024 258.38,147.38 C258.872546,147.090874 259.173628,146.561123 259.17,145.99 C259.215376,145.487492 258.96589,145.004113 258.53,144.75 C257.848092,144.45012 257.102753,144.323035 256.36,144.38 L255.69,144.38 C254.354881,144.465855 253.023746,144.160006 251.86,143.5 C250.997491,142.954995 250.493606,141.989215 250.54,140.97 C250.498979,139.962045 250.988331,139.006101 251.83,138.45 C252.913575,137.789306 254.173086,137.4753 255.44,137.55 C256.092115,137.549231 256.741336,137.636691 257.37,137.81 C258.03,137.99 258.37,138.08 258.37,138.08 C258.555613,138.038572 258.72977,137.956616 258.88,137.84 C259.102612,137.691386 259.362466,137.608233 259.63,137.6 C259.877665,137.584761 260.115724,137.698123 260.26,137.9 C260.409801,138.186116 260.478936,138.507597 260.46,138.83 L260.46,140.33 C260.483449,140.655934 260.414106,140.981844 260.26,141.27 C260.11471,141.469634 259.876139,141.579452 259.63,141.56 C259.39,141.56 259.08,141.35 258.72,140.93 C258.527735,140.70004 258.320625,140.482909 258.1,140.28 C257.697694,139.902312 257.225532,139.606786 256.71,139.41 C256.149896,139.220389 255.561226,139.129044 254.97,139.14 C254.310527,139.111552 253.659105,139.29367 253.11,139.66 C252.66695,139.939015 252.398691,140.426415 252.4,140.95 C252.378781,141.435669 252.667879,141.881362 253.12,142.06 C254.135518,142.357053 255.192903,142.485426 256.25,142.44 C257.557146,142.375482 258.855308,142.687874 259.99,143.34 C260.799502,143.931913 261.245749,144.900042 261.17,145.9 C261.201023,146.946618 260.714835,147.941432 259.87,148.56 C258.83846,149.271139 257.601349,149.622591 256.35,149.56 C255.827852,149.556091 255.306603,149.515995 254.79,149.44 C254.21,149.35 253.49,149.2 252.62,149 C252.385715,149.160772 252.138153,149.301281 251.88,149.42 C251.719642,149.505789 251.541754,149.553681 251.36,149.56 C251.107193,149.572923 250.864182,149.460764 250.71,149.26 C250.536178,148.98322 250.468669,148.652779 250.52,148.33 L250.52,148.33 Z" id="Path"></path>
        </g>
    </g>
</svg>