<svg id="Layer_1" data-name="Layer 1" xmlns="http://www.w3.org/2000/svg" viewBox="0 0 361.85 181.04"><defs><style>.cls-1{fill:#231f20;}</style></defs><path class="cls-1" d="M135,358.36h11.27V288.91H135v-1.42h32.69v1.42H156.42v33.2h33.81v-33.2H179v-1.42h32.69v1.42H200.38v69.45h11.27v1.42H179v-1.42h11.27V323.53H156.42v34.83h11.27v1.42H135Z" transform="translate(-135 -285.67)"/><path class="cls-1" d="M213.07,358.36H222l27.41-72.69h2.43l27.62,72.69h9v1.42H257.24v-1.42H268.5l-10.66-28.23H234.29l-10.66,28.23H234.9v1.42H213.07Zm33-59.19L234.9,328.71h22.34Z" transform="translate(-135 -285.67)"/><path class="cls-1" d="M297.64,358.36h11.27V288.91H303a32.88,32.88,0,0,0-4.57.36,13.12,13.12,0,0,0-5.12,2,17.48,17.48,0,0,0-5,5.13,33.29,33.29,0,0,0-4.11,9.69h-1.12V287.49h61.73v18.58h-1.12a33.29,33.29,0,0,0-4.11-9.69,17.59,17.59,0,0,0-5-5.13,13.22,13.22,0,0,0-5.13-2,32.88,32.88,0,0,0-4.57-.36h-5.89v69.45h11.27v1.42H297.64Z" transform="translate(-135 -285.67)"/><path class="cls-1" d="M411.7,359.78h-1.52a10.34,10.34,0,0,0-1.62-1.47,4.91,4.91,0,0,0-2.85-.66,11.16,11.16,0,0,0-3.3.55c-1.18.38-2.53.8-4.06,1.27a47.29,47.29,0,0,1-5.12,1.27,33,33,0,0,1-6.3.56A34.39,34.39,0,0,1,374.49,359a33.91,33.91,0,0,1-11.42-7.62,43.94,43.94,0,0,1-8.32-11.77,35.15,35.15,0,0,1-3.35-15.74,39.4,39.4,0,0,1,10.35-26.7,36.72,36.72,0,0,1,11.47-8.38,33.59,33.59,0,0,1,14.42-3.09,23.53,23.53,0,0,1,5.59.6,35.72,35.72,0,0,1,4.36,1.38l3.55,1.37a9.15,9.15,0,0,0,3.15.61,4.84,4.84,0,0,0,2.89-.66,10.54,10.54,0,0,0,1.58-1.48h1.52V307.8h-1.12a60.15,60.15,0,0,0-2.33-7.62,21.7,21.7,0,0,0-4-6.65,18.89,18.89,0,0,0-6.45-4.67,26.91,26.91,0,0,0-18.93-.1,19.6,19.6,0,0,0-6.5,4.47,21.72,21.72,0,0,0-4.21,6.5,39.34,39.34,0,0,0-2.39,7.81,61.2,61.2,0,0,0-1.06,8.33q-.25,4.22-.26,8a75.46,75.46,0,0,0,1.73,17.66,30.12,30.12,0,0,0,4.82,11.07,16.65,16.65,0,0,0,7.46,5.69,27.56,27.56,0,0,0,9.65,1.62,26.23,26.23,0,0,0,11-1.93,18.5,18.5,0,0,0,6.7-5,22.19,22.19,0,0,0,3.86-7q1.32-3.9,2.34-7.77h1.11Z" transform="translate(-135 -285.67)"/><path class="cls-1" d="M420.2,358.36h11.27V288.91H420.2v-1.42h32.69v1.42H441.62v33.2h33.81v-33.2H464.16v-1.42h32.69v1.42H485.58v69.45h11.27v1.42H464.16v-1.42h11.27V323.53H441.62v34.83h11.27v1.42H420.2Z" transform="translate(-135 -285.67)"/><path class="cls-1" d="M186.47,432.49a33.06,33.06,0,0,0,4-9.84,45.57,45.57,0,0,0,1.07-9.75,51.38,51.38,0,0,0-.46-7.77,10.16,10.16,0,0,0-1.57-4.41,5.06,5.06,0,0,0-3-2,20.76,20.76,0,0,0-4.73-.46v-1.42h19.29v1.42a10.8,10.8,0,0,0-4.26.71,5.22,5.22,0,0,0-2.49,2.24,10,10,0,0,0-1.11,3.9,55.16,55.16,0,0,0-.26,5.74,60.41,60.41,0,0,1-.4,7.41,47.33,47.33,0,0,1-1.12,5.94,29.1,29.1,0,0,1-1.83,5.08c-.74,1.59-1.56,3.16-2.43,4.72a69.5,69.5,0,0,0,4.66,7.66c1.36,1.87,2.91,2.8,4.68,2.8a3.59,3.59,0,0,0,2.58-.92,5.8,5.8,0,0,0,1.48-2.33,15.14,15.14,0,0,0,.71-3.1,28.63,28.63,0,0,0,.2-3.3h1.42a19.06,19.06,0,0,1-1.12,7.06A13.54,13.54,0,0,1,199,446.4a9.22,9.22,0,0,1-3.8,2.44,13,13,0,0,1-4.07.71,12.57,12.57,0,0,1-3.65-.46,7.39,7.39,0,0,1-2.69-1.42,12,12,0,0,1-2.18-2.38c-.68-1-1.42-2.07-2.24-3.35a24.93,24.93,0,0,1-3,2.54,28.74,28.74,0,0,1-4.11,2.43,29.18,29.18,0,0,1-5,1.88,21.84,21.84,0,0,1-5.89.76,21.44,21.44,0,0,1-10.76-2.49,23,23,0,0,1-7.05-6,21.8,21.8,0,0,1-3.81-7.41,24.66,24.66,0,0,1-1.12-6.65,21.41,21.41,0,0,1,1.88-9.24,25.84,25.84,0,0,1,4.77-6.95,35.63,35.63,0,0,1,6.35-5.23q3.45-2.23,6.7-4.06A53.57,53.57,0,0,1,157,396.3a20.92,20.92,0,0,1-1.11-7.26,14.79,14.79,0,0,1,1.21-6.14,15.87,15.87,0,0,1,3.15-4.62,13.47,13.47,0,0,1,4.42-2.94,13.13,13.13,0,0,1,5-1,9.43,9.43,0,0,1,6.55,2.44q2.68,2.43,2.69,7.61a13.67,13.67,0,0,1-1,5.33,15.4,15.4,0,0,1-2.44,4,15.59,15.59,0,0,1-3.3,3q-1.83,1.21-3.45,2.13Zm-26.59-29.84a28.49,28.49,0,0,0-8.43,6.34,13.92,13.92,0,0,0-3.15,9.49,31,31,0,0,0,1.63,9.6,40.07,40.07,0,0,0,4.26,9.19,28.26,28.26,0,0,0,5.94,6.85,10.54,10.54,0,0,0,6.65,2.69,13.81,13.81,0,0,0,6.85-1.78,30.67,30.67,0,0,0,6-4.41ZM163.53,384a17.32,17.32,0,0,0,1.47,6.29c1,2.44,2.08,4.87,3.3,7.31,1.15-.67,2.29-1.38,3.4-2.13a13.77,13.77,0,0,0,3-2.64,13.17,13.17,0,0,0,2.08-3.55,12.9,12.9,0,0,0,.81-4.78,11.22,11.22,0,0,0-1.67-6.09q-1.68-2.64-5.74-2.64a5.91,5.91,0,0,0-4.62,2.34A8.8,8.8,0,0,0,163.53,384Z" transform="translate(-135 -285.67)"/><path class="cls-1" d="M218.86,455.74h50.76v3.15H218.86Z" transform="translate(-135 -285.67)"/><path class="cls-1" d="M268.1,455.74h50.76v3.15H268.1Z" transform="translate(-135 -285.67)"/><path class="cls-1" d="M317.34,455.74H368.1v3.15H317.34Z" transform="translate(-135 -285.67)"/><path class="cls-1" d="M366.58,455.74h50.76v3.15H366.58Z" transform="translate(-135 -285.67)"/><path class="cls-1" d="M415.81,455.74h50.76v3.15H415.81Z" transform="translate(-135 -285.67)"/><path class="cls-1" d="M474.09,465.49a34.67,34.67,0,0,0,4.82-4.11,22,22,0,0,0,2.94-3.76,12,12,0,0,0,1.43-3.19,10.72,10.72,0,0,0,.35-2.44,7.57,7.57,0,0,0-1.83-5.28,5.12,5.12,0,0,1-4.36,2.54,6.07,6.07,0,0,1-3.76-1.43,4.81,4.81,0,0,1-1.83-4.06,5.51,5.51,0,0,1,1.78-4.06,6.09,6.09,0,0,1,4.42-1.72,6.85,6.85,0,0,1,3.5.91,9.43,9.43,0,0,1,2.69,2.34,10,10,0,0,1,1.68,3.35,13.83,13.83,0,0,1,.55,3.85,14.94,14.94,0,0,1-1.21,5.84,28.27,28.27,0,0,1-2.95,5.33,25.65,25.65,0,0,1-3.75,4.27,33.88,33.88,0,0,1-3.56,2.84Z" transform="translate(-135 -285.67)"/><path class="cls-1" d="M305,433.18h.48a1.14,1.14,0,0,1,.75.2.81.81,0,0,1,.24.65.89.89,0,0,1-.23.65.81.81,0,0,1-.64.23h-6.06a.82.82,0,0,1-.64-.23.88.88,0,0,1-.22-.65.82.82,0,0,1,.24-.66,1.3,1.3,0,0,1,.81-.19H301V422.09h-.78a2.37,2.37,0,0,1-1.2-.19.8.8,0,0,1-.26-.7.88.88,0,0,1,.22-.65.82.82,0,0,1,.64-.23h10.89a.77.77,0,0,1,.63.25,1.12,1.12,0,0,1,.22.73v3.18a.87.87,0,0,1-.22.64.82.82,0,0,1-.63.22.78.78,0,0,1-.7-.27,2.44,2.44,0,0,1-.19-1.22v-1.76H302.9v4.15h3.25v-.32a2.93,2.93,0,0,1,.17-1.21.65.65,0,0,1,.62-.31.67.67,0,0,1,.57.24,1.21,1.21,0,0,1,.18.75v3.12a1.54,1.54,0,0,1-.17.85.8.8,0,0,1-1.2-.07,2.93,2.93,0,0,1-.17-1.21v-.35H302.9v5.45Z" transform="translate(-135 -285.67)"/><path class="cls-1" d="M318.22,433.18h4.09a1.07,1.07,0,0,1,.71.2.84.84,0,0,1,.22.65.92.92,0,0,1-.21.69,1.2,1.2,0,0,1-.79.19h-8.05a1.06,1.06,0,0,1-.73-.22.86.86,0,0,1-.24-.66.77.77,0,0,1,.25-.64,1.21,1.21,0,0,1,.78-.21h2.14v-7.9h-.84a3.52,3.52,0,0,1-1.48-.19.76.76,0,0,1-.3-.69.8.8,0,0,1,.24-.64,1,1,0,0,1,.73-.22h2.81a.85.85,0,0,1,.5.13.43.43,0,0,1,.17.38v2.09a8.68,8.68,0,0,1,2.44-2.18,5.56,5.56,0,0,1,2.73-.71,3.14,3.14,0,0,1,1.77.44,1.29,1.29,0,0,1,.68,1.14,1.11,1.11,0,0,1-.34.8,1,1,0,0,1-.74.35,2.47,2.47,0,0,1-1-.38,2.46,2.46,0,0,0-1.19-.37,3.83,3.83,0,0,0-2,.68,12.06,12.06,0,0,0-2.36,2.17Z" transform="translate(-135 -285.67)"/><path class="cls-1" d="M334.87,433.18h3.95a1,1,0,0,1,.7.2.81.81,0,0,1,.23.65.92.92,0,0,1-.21.69,1.23,1.23,0,0,1-.8.19h-9.53a1.06,1.06,0,0,1-.74-.22.83.83,0,0,1-.25-.66.78.78,0,0,1,.26-.64,1.2,1.2,0,0,1,.77-.21H333v-7.9H330.6a1.16,1.16,0,0,1-.77-.23.93.93,0,0,1,0-1.29,1.06,1.06,0,0,1,.74-.22h3.6a.87.87,0,0,1,.52.14.43.43,0,0,1,.2.37ZM332.59,420a3.52,3.52,0,0,1,.24-1.67,1.2,1.2,0,0,1,1-.35,1.35,1.35,0,0,1,1,.29,2.46,2.46,0,0,1,.24,1.37,2.33,2.33,0,0,1-.22,1.31,1.46,1.46,0,0,1-1,.25,1.53,1.53,0,0,1-1-.23A1.39,1.39,0,0,1,332.59,420Z" transform="translate(-135 -285.67)"/><path class="cls-1" d="M343.85,429.77a3.82,3.82,0,0,0,1.2,2.75,4.44,4.44,0,0,0,3,1,7.69,7.69,0,0,0,3.14-.76,8.27,8.27,0,0,1,2.05-.77.88.88,0,0,1,.62.23.79.79,0,0,1,.25.58,1,1,0,0,1-.26.65,2.77,2.77,0,0,1-.83.58,12.83,12.83,0,0,1-2.54.91,11.08,11.08,0,0,1-2.6.32,6.2,6.2,0,0,1-4.49-1.62,5.69,5.69,0,0,1-1.69-4.29,5.77,5.77,0,0,1,1.79-4.4,6.47,6.47,0,0,1,4.65-1.69,6.1,6.1,0,0,1,4.3,1.58,5,5,0,0,1,1.71,3.81,1.15,1.15,0,0,1-.28.92,3.06,3.06,0,0,1-1.57.24h-8.46Zm.07-1.61h8a3.64,3.64,0,0,0-1.23-2.36,3.79,3.79,0,0,0-2.55-.89,4.43,4.43,0,0,0-2.76.86A4,4,0,0,0,343.92,428.16Z" transform="translate(-135 -285.67)"/><path class="cls-1" d="M357.73,433.18v-7.89h-.24a2.38,2.38,0,0,1-1.15-.2.93.93,0,0,1,0-1.34,1.31,1.31,0,0,1,.83-.21h1.76a.87.87,0,0,1,.52.14.43.43,0,0,1,.18.37v.83a6.88,6.88,0,0,1,1.78-1.23,4.35,4.35,0,0,1,1.83-.4,3.77,3.77,0,0,1,2.92,1.15,4.57,4.57,0,0,1,1.07,3.2v5.58h.58a1.56,1.56,0,0,1,.89.2.93.93,0,0,1,0,1.33,1.92,1.92,0,0,1-1,.2h-2.72a1.79,1.79,0,0,1-1-.18.89.89,0,0,1-.23-.7.78.78,0,0,1,.26-.67,1.88,1.88,0,0,1,1-.18h.44v-5.12a3.27,3.27,0,0,0-.66-2.2,2.36,2.36,0,0,0-1.89-.76,3.28,3.28,0,0,0-2.22.85,2.69,2.69,0,0,0-1,2.11v5.12H360a1.89,1.89,0,0,1,1,.18.78.78,0,0,1,.26.67.89.89,0,0,1-.22.7,2,2,0,0,1-1.08.18h-2.91a1.14,1.14,0,0,1-.75-.21.84.84,0,0,1-.26-.67.72.72,0,0,1,.29-.67,2.38,2.38,0,0,1,1.13-.18Z" transform="translate(-135 -285.67)"/><path class="cls-1" d="M380.3,434.91a.45.45,0,0,1-.37-.13.91.91,0,0,1-.1-.5v-1a5,5,0,0,1-1.85,1.43,5.6,5.6,0,0,1-2.39.51,5.18,5.18,0,0,1-3.9-1.65,6.19,6.19,0,0,1,.11-8.36,5.6,5.6,0,0,1,4.17-1.69,5.51,5.51,0,0,1,2.27.45,4.77,4.77,0,0,1,1.74,1.32v-4.71h-.65a3.29,3.29,0,0,1-1.39-.19.75.75,0,0,1-.31-.7.82.82,0,0,1,.25-.66,1.06,1.06,0,0,1,.73-.23h2.52a.93.93,0,0,1,.54.13.45.45,0,0,1,.17.38v13.87h.55a1.51,1.51,0,0,1,.87.2.76.76,0,0,1,.27.65.86.86,0,0,1-.23.65.89.89,0,0,1-.63.23Zm-8.06-5.52a3.74,3.74,0,0,0,1.09,2.78,3.8,3.8,0,0,0,2.78,1.08,3.73,3.73,0,0,0,2.8-1.12,4,4,0,0,0,1.09-2.87,3.81,3.81,0,0,0-1.09-2.81,3.73,3.73,0,0,0-2.8-1.11,3.68,3.68,0,0,0-2.8,1.12A4.08,4.08,0,0,0,372.24,429.39Z" transform="translate(-135 -285.67)"/><path class="cls-1" d="M385.52,434v-2.19a1.24,1.24,0,0,1,.2-.78.87.87,0,0,1,.66-.23c.34,0,.6.23.8.69a3.18,3.18,0,0,0,.36.62,3.46,3.46,0,0,0,1.52,1.07,6.18,6.18,0,0,0,2.23.4,3.7,3.7,0,0,0,2.09-.53,1.6,1.6,0,0,0,.79-1.39,1.3,1.3,0,0,0-.64-1.24,4.53,4.53,0,0,0-2.17-.37h-.67a6.87,6.87,0,0,1-3.83-.88,2.84,2.84,0,0,1-1.32-2.53,2.88,2.88,0,0,1,1.29-2.52,6.23,6.23,0,0,1,3.61-.9,7.23,7.23,0,0,1,1.93.26c.66.18,1,.27,1,.27a1.29,1.29,0,0,0,.51-.24,1.43,1.43,0,0,1,.75-.24.72.72,0,0,1,.63.3,1.78,1.78,0,0,1,.2.93V426a1.73,1.73,0,0,1-.2.94.71.71,0,0,1-.63.29c-.24,0-.55-.21-.91-.63a6.87,6.87,0,0,0-.62-.65,4.24,4.24,0,0,0-1.39-.87,5.13,5.13,0,0,0-1.74-.27,3.11,3.11,0,0,0-1.86.52,1.52,1.52,0,0,0-.71,1.29,1.14,1.14,0,0,0,.72,1.11,9.67,9.67,0,0,0,3.13.38,6.83,6.83,0,0,1,3.74.9,2.9,2.9,0,0,1,1.18,2.56,3.18,3.18,0,0,1-1.3,2.66,5.7,5.7,0,0,1-3.52,1,11.3,11.3,0,0,1-1.56-.12c-.58-.09-1.3-.24-2.17-.44a5,5,0,0,1-.74.42,1.19,1.19,0,0,1-.52.14.77.77,0,0,1-.65-.3A1.35,1.35,0,0,1,385.52,434Z" transform="translate(-135 -285.67)"/></svg>