<?xml version="1.0" encoding="UTF-8"?>
<svg width="1000px" height="503px" viewBox="0 0 1000 503" version="1.1" xmlns="http://www.w3.org/2000/svg" xmlns:xlink="http://www.w3.org/1999/xlink">
    <title>whiteLogo</title>
    <g id="Page-1" stroke="none" stroke-width="1" fill="none" fill-rule="evenodd">
        <g id="whiteLogo" fill="#FFFFFF" fill-rule="nonzero">
            <polygon id="Path" points="0 200.801105 31.1325967 200.801105 31.1325967 8.95027624 0 8.95027624 0 5.02762431 90.3038674 5.02762431 90.3038674 8.95027624 59.1712707 8.95027624 59.1712707 100.662983 152.569061 100.662983 152.569061 8.95027624 121.546961 8.95027624 121.546961 5.02762431 211.850829 5.02762431 211.850829 8.95027624 180.607735 8.95027624 180.607735 200.801105 211.740331 200.801105 211.740331 204.723757 121.546961 204.723757 121.546961 200.801105 152.679558 200.801105 152.679558 104.585635 59.1712707 104.585635 59.1712707 200.801105 90.3038674 200.801105 90.3038674 204.723757 0 204.723757"></polygon>
            <path d="M215.662983,200.801105 L240.331492,200.801105 L316.049724,0 L322.762431,0 L399.060773,200.801105 L423.922652,200.801105 L423.922652,204.723757 L337.679558,204.723757 L337.679558,200.801105 L368.78453,200.801105 L339.337017,122.81768 L274.281768,122.81768 L244.834254,200.801105 L275.966851,200.801105 L275.966851,204.723757 L215.662983,204.723757 L215.662983,200.801105 Z M306.823204,37.2928177 L275.966851,118.895028 L337.679558,118.895028 L306.823204,37.2928177 Z" id="Shape"></path>
            <path d="M449.281768,200.801105 L480.414365,200.801105 L480.414365,8.95027624 L464.088398,8.95027624 C459.862282,8.98765834 455.643931,9.31995746 451.464088,9.94475138 C446.412318,10.7670287 441.591992,12.649968 437.320442,15.4696133 C431.787445,19.1891937 427.084655,24.0142576 423.508287,29.640884 C418.328202,37.9049986 414.495779,46.9405649 412.154696,56.4088398 L409.060773,56.4088398 L409.060773,5.02762431 L579.585635,5.02762431 L579.585635,56.3535912 L576.491713,56.3535912 C574.15063,46.8853163 570.318207,37.84975 565.138122,29.5856354 C561.554876,23.9644548 556.853343,19.140681 551.325967,15.4143646 C547.042331,12.5985394 542.213862,10.7160957 537.154696,9.88950276 C532.974854,9.26470884 528.756503,8.93240972 524.530387,8.89502762 L508.259669,8.89502762 L508.259669,200.745856 L539.392265,200.745856 L539.392265,204.668508 L449.281768,204.668508 L449.281768,200.801105 Z" id="Path"></path>
            <path d="M764.364641,204.723757 L760.165746,204.723757 C758.821815,203.215736 757.32171,201.854529 755.690608,200.662983 C753.312514,199.269412 750.566279,198.633442 747.81768,198.839779 C744.719925,198.885297 741.646729,199.397497 738.701657,200.359116 C735.441989,201.40884 731.712707,202.569061 727.486188,203.867403 C722.840586,205.299078 718.118693,206.470329 713.342541,207.375691 C707.604345,208.447362 701.776481,208.965395 695.939227,208.922652 C684.190008,208.948055 672.538014,206.793748 661.574586,202.569061 C649.733699,197.776833 638.998061,190.613473 630.027624,181.519337 C620.628997,172.020401 612.863401,161.034692 607.044199,149.005525 C600.638594,135.422614 597.470867,120.539034 597.790055,105.524862 C597.732514,78.2234749 607.937522,51.8975157 626.381215,31.7679558 C635.335461,22.0627544 646.098514,14.1992517 658.066298,8.61878453 C670.54813,2.85781699 684.154094,-0.0577464414 697.900552,0.0828729282 C703.095624,0.0162286101 708.27995,0.572685815 713.342541,1.74033149 C717.43458,2.75248104 721.457555,4.0258082 725.38674,5.55248619 L735.19337,9.33701657 C737.972033,10.4068469 740.917865,10.9773098 743.895028,11.0220994 C746.681362,11.2643315 749.473506,10.6266789 751.878453,9.19889503 C753.469807,7.98951956 754.932401,6.6194953 756.243094,5.11049724 L760.441989,5.11049724 L760.441989,61.1325967 L757.348066,61.1325967 C755.670202,53.9814688 753.519997,46.9494685 750.911602,40.0828729 C748.362094,33.3452809 744.619011,27.1224047 739.861878,21.7127072 C734.906798,16.1953055 728.832627,11.7974173 722.044199,8.8121547 C705.222011,2.38972775 686.640481,2.29156858 669.751381,8.5359116 C662.991097,11.3924645 656.882116,15.5935636 651.79558,20.8839779 C646.874627,26.1242319 642.935414,32.2061536 640.165746,38.839779 C637.22242,45.7827588 635.009762,53.013245 633.563536,60.4143646 C632.061787,68.0086271 631.083428,75.6970702 630.635359,83.4254144 C630.174953,91.1970533 629.935544,98.5635359 629.917127,105.524862 C629.585972,121.91773 631.190061,138.292424 634.696133,154.309392 C637.024961,165.296964 641.554251,175.699295 648.01105,184.889503 C653.231544,191.99602 660.384831,197.45208 668.618785,200.607735 C677.166539,203.677566 686.194624,205.193161 695.276243,205.082873 C705.670439,205.507625 716.034229,203.689251 725.662983,199.751381 C732.805492,196.619862 739.136555,191.895189 744.171271,185.939227 C748.866859,180.192183 752.479798,173.640221 754.834254,166.60221 C757.265193,159.41989 759.41989,152.265193 761.298343,145.138122 L764.364641,145.138122 L764.364641,204.723757 Z" id="Path"></path>
            <polygon id="Path" points="787.845304 200.801105 818.977901 200.801105 818.977901 8.95027624 787.845304 8.95027624 787.845304 5.02762431 878.149171 5.02762431 878.149171 8.95027624 847.016575 8.95027624 847.016575 100.662983 940.414365 100.662983 940.414365 8.95027624 909.281768 8.95027624 909.281768 5.02762431 999.585635 5.02762431 999.585635 8.95027624 968.453039 8.95027624 968.453039 200.801105 999.585635 200.801105 999.585635 204.723757 909.281768 204.723757 909.281768 200.801105 940.414365 200.801105 940.414365 104.585635 847.016575 104.585635 847.016575 200.801105 878.149171 200.801105 878.149171 204.723757 787.845304 204.723757"></polygon>
            <path d="M142.18232,405.58011 C147.306581,397.17413 151.037973,387.994906 153.232044,378.39779 C155.183462,369.552381 156.174469,360.522185 156.187845,351.464088 C156.307597,344.287555 155.882806,337.112273 154.917127,330 C154.439398,325.657003 152.954311,321.485517 150.58011,317.81768 C148.589781,315.020948 145.639928,313.054378 142.292818,312.292818 C138.000385,311.370481 133.616234,310.944116 129.226519,311.022099 L129.226519,307.099448 L182.513812,307.099448 L182.513812,311.022099 C178.499117,310.876903 174.49645,311.544014 170.745856,312.983425 C167.835604,314.234517 165.418304,316.409116 163.867403,319.171271 C162.120302,322.515348 161.076752,326.181876 160.801105,329.944751 C160.286383,335.214135 160.046648,340.506765 160.082873,345.801105 C160.134375,352.640506 159.765355,359.476605 158.977901,366.270718 C158.297274,371.800669 157.26386,377.281456 155.883978,382.679558 C154.637455,387.503837 152.945088,392.201773 150.828729,396.712707 C148.78453,401.104972 146.519337,405.441989 144.116022,409.751381 C147.947075,417.074511 152.246997,424.142624 156.98895,430.911602 C160.745856,436.077348 165.027624,438.646409 169.917127,438.646409 C172.535334,438.774486 175.097756,437.860754 177.044199,436.104972 C178.905115,434.319762 180.30763,432.111746 181.132597,429.668508 C182.085196,426.890768 182.742597,424.020425 183.093923,421.104972 C183.453523,418.079478 183.637993,415.035729 183.646409,411.98895 L187.569061,411.98895 C187.776949,418.626815 186.727183,425.244091 184.475138,431.491713 C182.767163,436.129376 180.157031,440.382577 176.79558,444.005525 C173.90934,447.087732 170.302062,449.403983 166.298343,450.745856 C162.679156,451.994779 158.883536,452.656912 155.055249,452.707182 C151.65016,452.78039 148.252826,452.352232 144.972376,451.436464 C142.250184,450.658348 139.719606,449.322506 137.541436,447.513812 C135.247169,445.603464 133.221485,443.391936 131.519337,440.939227 C129.640884,438.176796 127.596685,435.220994 125.331492,431.685083 C122.758044,434.23842 119.987002,436.584569 117.044199,438.701657 C113.452406,441.250262 109.654774,443.495577 105.690608,445.414365 C101.255025,447.564146 96.6316058,449.302552 91.878453,450.607735 C86.5757718,452.045127 81.1016008,452.751472 75.6077348,452.707182 C65.2691436,453.04942 55.0212075,450.677917 45.8839779,445.828729 C38.3359845,441.680942 31.710076,436.04187 26.4088398,429.254144 C21.6171154,423.171083 18.0435686,416.220956 15.8839779,408.78453 C14.0163185,402.831713 12.9752792,396.650541 12.7900552,390.414365 C12.6027914,381.625856 14.3769369,372.906122 17.9834254,364.889503 C21.2952126,357.811768 25.7466948,351.325854 31.160221,345.690608 C36.429932,340.213644 42.3163022,335.3655 48.7016575,331.243094 C55.0552486,327.136279 61.2246776,323.39779 67.2099448,320.027624 C64.8093475,315.338972 62.6608014,310.525492 60.7734807,305.607735 C58.576734,299.155773 57.5386406,292.366083 57.7071823,285.552486 C57.5987746,279.725014 58.7384644,273.941793 61.0497238,268.59116 C63.1720486,263.855525 66.1183249,259.53432 69.7513812,255.828729 C73.2423423,252.338425 77.3929108,249.57764 81.961326,247.707182 C86.3406265,245.892641 91.0331489,244.954136 95.7734807,244.944751 C102.445532,244.790784 108.922196,247.203465 113.867403,251.685083 C118.802947,256.160221 121.279926,263.167588 121.298343,272.707182 C121.370046,277.750331 120.430756,282.756749 118.535912,287.430939 C116.865881,291.436414 114.592801,295.162773 111.79558,298.480663 C109.169774,301.665699 106.099694,304.456682 102.679558,306.767956 C99.3093923,308.996318 96.1325967,310.957644 93.1491713,312.651934 L142.18232,405.58011 Z M68.7292818,323.149171 C59.9443906,327.486729 52.0466271,333.426448 45.441989,340.662983 C39.3946699,348.022141 36.2938961,357.363834 36.7403315,366.878453 C36.8348829,375.900238 38.3545464,384.850403 41.2430939,393.39779 C44.076055,402.323768 48.0302934,410.854157 53.0110497,418.78453 C57.4265829,425.934108 62.9674928,432.323878 69.4198895,437.707182 C74.4860931,442.25584 80.9861793,444.885199 87.7900552,445.139026 C94.4176467,445.170627 100.93937,443.475931 106.712707,440.220994 C112.711849,436.84847 118.277723,432.757552 123.287293,428.038674 L68.7292818,323.149171 Z M78.8121547,271.629834 C79.0641704,277.62513 80.4417141,283.519517 82.8729282,289.005525 C85.6353591,295.745856 88.6187845,302.458564 91.9889503,309.198895 C95.1657459,307.348066 98.3149171,305.38674 101.381215,303.314917 C104.483569,301.299887 107.275392,298.843083 109.668508,296.022099 C112.085738,293.074436 114.02468,289.765185 115.414365,286.21547 C116.988043,281.99497 117.747306,277.514381 117.651934,273.01105 C117.756506,267.0773 116.155327,261.238271 113.038674,256.187845 C109.944751,251.325967 104.6593,248.895028 97.1823204,248.895028 C92.1603406,248.971878 87.4532384,251.355994 84.4198895,255.359116 C80.6291285,259.917429 78.634808,265.703905 78.8121547,271.629834 L78.8121547,271.629834 Z" id="Shape"></path>
            <polygon id="Path" points="231.657459 469.80663 371.878453 469.80663 371.878453 478.508287 231.657459 478.508287"></polygon>
            <polygon id="Path" points="367.679558 469.80663 507.900552 469.80663 507.900552 478.508287 367.679558 478.508287"></polygon>
            <polygon id="Path" points="503.701657 469.80663 643.922652 469.80663 643.922652 478.508287 503.701657 478.508287"></polygon>
            <polygon id="Path" points="639.723757 469.80663 779.944751 469.80663 779.944751 478.508287 639.723757 478.508287"></polygon>
            <polygon id="Path" points="775.718232 469.80663 915.939227 469.80663 915.939227 478.508287 775.718232 478.508287"></polygon>
            <path d="M936.712707,496.740331 C941.488166,493.37003 945.945069,489.569641 950.027624,485.38674 C953.103478,482.229273 955.826685,478.746536 958.149171,475 C959.889025,472.271191 961.219903,469.302309 962.099448,466.187845 C962.679831,463.985718 963.00426,461.723994 963.066298,459.447514 C963.303066,454.118843 961.494646,448.901105 958.01105,444.861878 C955.507564,449.154025 950.935378,451.817635 945.966851,451.878453 C942.15624,451.780583 938.492702,450.387268 935.58011,447.928177 C932.16163,445.241881 930.273586,441.053105 930.524862,436.712707 C930.521395,432.450674 932.305011,428.382425 935.441989,425.497238 C938.702682,422.328558 943.107108,420.614619 947.651934,420.745856 C951.041765,420.70258 954.380975,421.570773 957.320442,423.259669 C960.185923,424.922246 962.707972,427.116149 964.751381,429.723757 C966.867707,432.488445 968.442315,435.628287 969.392265,438.977901 C970.397127,442.43376 970.908627,446.014273 970.911602,449.61326 C970.893008,455.160787 969.75618,460.64763 967.569061,465.745856 C965.390948,470.932981 962.658699,475.869555 959.41989,480.469613 C956.414417,484.773036 952.940061,488.729171 949.060773,492.265193 C945.962354,495.097898 942.676848,497.71892 939.226519,500.110497 L936.712707,496.740331 Z" id="Path"></path>
            <path d="M469.61326,407.486188 L470.939227,407.486188 C471.673199,407.422329 472.406331,407.617831 473.01105,408.038674 C473.489807,408.507702 473.733108,409.166641 473.674033,409.834254 C473.71211,410.493837 473.483119,411.140989 473.038674,411.629834 C472.571108,412.09074 471.92471,412.323039 471.270718,412.265193 L454.530387,412.265193 C453.876884,412.319287 453.232008,412.087536 452.762431,411.629834 C452.325218,411.138207 452.105948,410.490359 452.154696,409.834254 C452.091094,409.157848 452.334453,408.48861 452.81768,408.01105 C453.485901,407.595704 454.272036,407.411304 455.055249,407.486188 L458.563536,407.486188 L458.563536,376.850829 L456.40884,376.850829 C455.277033,376.966884 454.134519,376.785983 453.093923,376.325967 C452.549923,375.839525 452.281144,375.115884 452.375691,374.392265 C452.326942,373.73616 452.546213,373.088312 452.983425,372.596685 C453.453003,372.138983 454.097878,371.907232 454.751381,371.961326 L484.834254,371.961326 C485.489934,371.910099 486.132436,372.165061 486.574586,372.651934 C487.006765,373.232367 487.221812,373.945928 487.18232,374.668508 L487.18232,383.453039 C487.226646,384.100227 487.007464,384.737848 486.574586,385.220994 C486.106862,385.66113 485.474287,385.88203 484.834254,385.828729 C484.104594,385.926793 483.375367,385.645522 482.900552,385.082873 C482.439558,384.023061 482.258818,382.862517 482.375691,381.712707 L482.375691,376.850829 L463.812155,376.850829 L463.812155,388.314917 L472.790055,388.314917 L472.790055,387.430939 C472.70995,386.296138 472.869967,385.157193 473.259669,384.088398 C473.61803,383.49695 474.284202,383.163865 474.972376,383.232044 C475.573942,383.183083 476.161594,383.430517 476.546961,383.895028 C476.934271,384.512906 477.108892,385.240492 477.044199,385.966851 L477.044199,394.585635 C477.115713,395.397144 476.952718,396.212122 476.574586,396.933702 C476.127901,397.386075 475.508033,397.624169 474.87337,397.587146 C474.238704,397.550124 473.650727,397.241572 473.259669,396.740331 C472.869967,395.671536 472.70995,394.532591 472.790055,393.39779 L472.790055,392.430939 L463.812155,392.430939 L463.812155,407.486188 L469.61326,407.486188 Z" id="Path"></path>
            <path d="M506.132597,407.486188 L517.430939,407.486188 C518.129533,407.432058 518.824641,407.627862 519.392265,408.038674 C519.841232,408.523387 520.062285,409.176503 520,409.834254 C520.074122,410.522088 519.86463,411.210412 519.41989,411.740331 C518.775616,412.163732 518.003912,412.349331 517.237569,412.265193 L495,412.265193 C494.275699,412.319738 493.556975,412.103138 492.983425,411.657459 C492.513055,411.171757 492.271923,410.508644 492.320442,409.834254 C492.260373,409.169204 492.516099,408.514544 493.01105,408.066298 C493.641627,407.63182 494.402268,407.42703 495.165746,407.486188 L501.077348,407.486188 L501.077348,385.662983 L498.756906,385.662983 C497.372257,385.782207 495.978141,385.603232 494.668508,385.138122 C494.07508,384.693666 493.76008,383.969163 493.839779,383.232044 C493.785221,382.573227 494.028461,381.924583 494.502762,381.464088 C495.068323,381.003155 495.793265,380.78468 496.519337,380.856354 L504.281768,380.856354 C504.768282,380.829856 505.250989,380.955359 505.662983,381.21547 C505.989754,381.461232 506.167157,381.857782 506.132597,382.265193 L506.132597,388.038674 C507.97729,385.622157 510.264699,383.578489 512.872928,382.016575 C515.176343,380.725387 517.773749,380.049873 520.414365,380.055249 C522.128561,379.96771 523.830191,380.390715 525.303867,381.270718 C526.463494,381.893039 527.185724,383.103831 527.182343,384.41989 C527.182696,385.253588 526.843583,386.051503 526.243094,386.629834 C525.730859,387.229025 524.987036,387.580834 524.198895,387.596685 C523.212459,387.452776 522.269536,387.094464 521.436464,386.546961 C520.446588,385.92976 519.3145,385.577765 518.149171,385.524862 C516.167873,385.620718 514.253425,386.27163 512.624309,387.403315 C510.194105,389.102434 508.001624,391.118401 506.104972,393.39779 L506.132597,407.486188 Z" id="Path"></path>
            <path d="M552.127072,407.486188 L563.038674,407.486188 C563.729762,407.420848 564.420122,407.618094 564.972376,408.038674 C565.441047,408.512682 565.673978,409.170967 565.607735,409.834254 C565.681856,410.522088 565.472365,411.210412 565.027624,411.740331 C564.372997,412.163619 563.592727,412.348934 562.81768,412.265193 L536.491713,412.265193 C535.758146,412.326773 535.028296,412.109793 534.447514,411.657459 C533.957525,411.182738 533.704392,410.51447 533.756906,409.834254 C533.70808,409.165265 533.973591,408.511696 534.475138,408.066298 C535.097204,407.635898 535.847765,407.431202 536.60221,407.486188 L546.961326,407.486188 L546.961326,385.662983 L540.331492,385.662983 C539.569412,385.711403 538.815091,385.486088 538.20442,385.027624 C537.246707,384.03282 537.246707,382.458892 538.20442,381.464088 C538.785202,381.011754 539.515052,380.794773 540.248619,380.856354 L550.19337,380.856354 C550.701044,380.830102 551.203964,380.965503 551.629834,381.243094 C551.979423,381.464334 552.188718,381.851528 552.18232,382.265193 L552.127072,407.486188 Z M545.828729,371.077348 C545.672481,369.508588 545.900008,367.925359 546.491713,366.464088 C547.212699,365.730754 548.23321,365.373575 549.254144,365.497238 C550.24503,365.384152 551.239928,365.672674 552.016575,366.298343 C552.597017,367.469812 552.827213,368.783854 552.679558,370.082873 C552.832403,371.32255 552.621243,372.579917 552.071823,373.701657 C551.265605,374.260066 550.283541,374.505583 549.309392,374.392265 C548.342898,374.504773 547.367185,374.280359 546.546961,373.756906 C545.981989,372.984436 545.725848,372.028829 545.828729,371.077348 L545.828729,371.077348 Z" id="Shape"></path>
            <path d="M576.933702,398.066298 C576.956337,400.944657 578.153804,403.688848 580.248619,405.662983 C582.578409,407.569663 585.528072,408.552884 588.535912,408.425414 C591.543298,408.347691 594.499878,407.632086 597.209945,406.325967 C598.994972,405.369052 600.899326,404.65376 602.872928,404.198895 C603.504721,404.179964 604.119044,404.407859 604.585635,404.834254 C605.028599,405.249069 605.278829,405.829602 605.276243,406.436464 C605.261003,407.101981 605.00595,407.739608 604.558011,408.232044 C603.898674,408.902453 603.121417,409.445597 602.265193,409.834254 C600.021188,410.916472 597.669329,411.759066 595.248619,412.348066 C592.89789,412.925702 590.486936,413.222434 588.066298,413.232044 C583.500307,413.45542 579.0345,411.844149 575.662983,408.756906 C572.504276,405.642376 570.808671,401.338144 570.994475,396.906077 C570.821202,392.332492 572.622343,387.905108 575.939227,384.751381 C579.433406,381.55489 584.053359,379.875809 588.78453,380.082873 C593.160696,379.939251 597.420928,381.504638 600.662983,384.447514 C603.697439,387.09879 605.422793,390.942997 605.38674,394.972376 C605.512497,395.891831 605.229917,396.820307 604.61326,397.513812 C603.251135,398.112669 601.755069,398.341367 600.276243,398.176796 L576.906077,398.176796 L576.933702,398.066298 Z M577.127072,393.618785 L599.226519,393.618785 C598.957409,391.094696 597.74361,388.765782 595.828729,387.099448 C593.862246,385.442699 591.35484,384.567564 588.78453,384.640884 C586.048942,384.557939 583.364503,385.394395 581.160221,387.016575 C579.064152,388.659381 577.631914,391.003934 577.127072,393.618785 L577.127072,393.618785 Z" id="Shape"></path>
            <path d="M615.276243,407.486188 L615.276243,385.690608 L614.61326,385.690608 C613.524884,385.773 612.433119,385.58313 611.436464,385.138122 C610.933381,384.653826 610.649119,383.985602 610.649119,383.287293 C610.649119,382.588983 610.933381,381.92076 611.436464,381.436464 C612.114193,380.991757 612.921608,380.787472 613.729282,380.856354 L618.59116,380.856354 C619.098834,380.830102 619.601754,380.965503 620.027624,381.243094 C620.356199,381.477238 620.543456,381.862157 620.524862,382.265193 L620.524862,384.558011 C621.974442,383.173166 623.634,382.026392 625.441989,381.160221 C627.026831,380.429146 628.751906,380.05208 630.497238,380.055249 C633.519917,379.891552 636.464246,381.051135 638.563536,383.232044 C640.640329,385.693721 641.69774,388.856066 641.519337,392.071823 L641.519337,407.486188 L643.121547,407.486188 C643.977809,407.421282 644.833939,407.613671 645.58011,408.038674 C646.074517,408.522028 646.353218,409.184265 646.353218,409.875691 C646.353218,410.567116 646.074517,411.229354 645.58011,411.712707 C644.725939,412.142517 643.771459,412.333412 642.81768,412.265193 L635.303867,412.265193 C634.354359,412.369757 633.394887,412.197052 632.541436,411.767956 C632.060251,411.245436 631.828577,410.54034 631.906077,409.834254 C631.830075,409.137196 632.098008,408.446754 632.624309,407.983425 C633.482028,407.567273 634.437746,407.395243 635.38674,407.486188 L636.60221,407.486188 L636.60221,393.342541 C636.749334,391.162942 636.101613,389.003873 634.779006,387.265193 C633.445854,385.811635 631.526323,385.03976 629.558011,385.165746 C627.292122,385.15408 625.104099,385.991837 623.425414,387.513812 C621.665406,388.934967 620.648594,391.080439 620.662983,393.342541 L620.662983,407.486188 L621.546961,407.486188 C622.495898,407.396671 623.451232,407.56863 624.309392,407.983425 C624.835693,408.446754 625.103627,409.137196 625.027624,409.834254 C625.112539,410.536224 624.89111,411.240771 624.41989,411.767956 C623.491028,412.207986 622.457831,412.380185 621.436464,412.265193 L613.39779,412.265193 C612.660494,412.321047 611.927055,412.115682 611.325967,411.685083 C610.821401,411.206873 610.557815,410.527638 610.607735,409.834254 C610.518994,409.11763 610.825627,408.409204 611.40884,407.983425 C612.393436,407.566296 613.464917,407.395619 614.530387,407.486188 L615.276243,407.486188 Z" id="Path"></path>
            <path d="M677.624309,412.265193 C677.246624,412.308052 676.870086,412.175754 676.60221,411.906077 C676.380384,411.481406 676.284541,411.002185 676.325967,410.524862 L676.325967,407.762431 C674.95863,409.464602 673.207243,410.818376 671.21547,411.712707 C669.145287,412.662644 666.890878,413.14371 664.61326,413.121547 C660.536718,413.206541 656.617525,411.54842 653.839779,408.563536 C647.941602,401.949798 648.073494,391.925873 654.143646,385.469613 C657.161912,382.371464 661.339395,380.678431 665.662983,380.801105 C667.817652,380.766903 669.955025,381.19061 671.933702,382.044199 C673.796356,382.871575 675.441691,384.11976 676.740331,385.690608 L676.740331,372.679558 L674.944751,372.679558 C673.641975,372.782707 672.332276,372.603682 671.104972,372.154696 C670.487268,371.715323 670.158829,370.973685 670.248619,370.220994 C670.192133,369.540215 670.445887,368.870301 670.939227,368.39779 C671.508831,367.942246 672.227939,367.715677 672.955801,367.762431 L679.917127,367.762431 C680.439337,367.727392 680.95979,367.852685 681.40884,368.121547 C681.727547,368.373663 681.902903,368.765638 681.878453,369.171271 L681.878453,407.486188 L683.39779,407.486188 C684.236268,407.423928 685.073989,407.616508 685.801105,408.038674 C686.328594,408.479072 686.607177,409.149732 686.546961,409.834254 C686.594876,410.495199 686.36455,411.146119 685.911602,411.629834 C685.436536,412.060456 684.812036,412.288448 684.171271,412.265193 L677.624309,412.265193 Z M655.359116,397.016575 C655.253041,399.883453 656.343787,402.665359 658.370166,404.696133 C660.416497,406.695575 663.190268,407.773155 666.049724,407.679558 C668.948547,407.782948 671.756685,406.659691 673.78453,404.585635 C675.802782,402.448602 676.88637,399.595486 676.79558,396.657459 C676.901514,393.766099 675.8125,390.958644 673.78453,388.895028 C671.751909,386.831108 668.94439,385.718124 666.049724,385.828729 C663.147865,385.707757 660.332834,386.833768 658.314917,388.922652 C656.296497,391.122635 655.23345,394.033597 655.359116,397.016575 L655.359116,397.016575 Z" id="Shape"></path>
            <path d="M692.044199,409.751381 L692.044199,403.701657 C691.983536,402.941964 692.177953,402.183735 692.596685,401.546961 C693.088892,401.089638 693.750061,400.859229 694.41989,400.911602 C695.359116,400.911602 696.077348,401.546961 696.629834,402.81768 C696.895704,403.424243 697.229315,403.998796 697.624309,404.530387 C698.728122,405.880215 700.180157,406.902373 701.823204,407.486188 C703.790978,408.23097 705.879472,408.605588 707.983425,408.59116 C710.010594,408.687133 712.020442,408.177459 713.756906,407.127072 C715.11753,406.328381 715.949249,404.864981 715.939227,403.287293 C716.064575,401.899149 715.375387,400.563848 714.171271,399.861878 C712.287547,399.033481 710.228599,398.682417 708.176796,398.839779 L706.325967,398.839779 C702.637793,399.076948 698.960624,398.232061 695.745856,396.40884 C693.363235,394.903301 691.971287,392.235401 692.099448,389.41989 C691.98613,386.635483 693.337931,383.994754 695.662983,382.458564 C698.656285,380.633442 702.135597,379.766022 705.635359,379.972376 C707.436782,379.970251 709.23021,380.211854 710.966851,380.690608 C712.790055,381.187845 713.729282,381.436464 713.729282,381.436464 C714.242025,381.322022 714.723122,381.095624 715.138122,380.773481 C715.753072,380.362945 716.470901,380.13324 717.209945,380.110497 C717.894102,380.068401 718.551724,380.381555 718.950276,380.939227 C719.364091,381.729602 719.555072,382.617671 719.502762,383.508287 L719.502762,387.651934 C719.567539,388.552304 719.375983,389.452608 718.950276,390.248619 C718.548923,390.800094 717.889887,391.103459 717.209945,391.049724 C716.546961,391.049724 715.690608,390.469613 714.696133,389.309392 C714.165014,388.674144 713.592887,388.074334 712.983425,387.513812 C711.872083,386.470475 710.567768,385.654105 709.143646,385.110497 C707.596398,384.58671 705.970238,384.334376 704.337017,384.364641 C702.515268,384.286055 700.71576,384.789144 699.198895,385.801105 C697.975,386.571865 697.233953,387.918273 697.237569,389.364641 C697.178953,390.706268 697.977566,391.937464 699.226519,392.430939 C702.031818,393.251528 704.952771,393.606149 707.872928,393.480663 C711.483829,393.302436 715.069912,394.165398 718.20442,395.966851 C720.440613,397.60197 721.67334,400.276359 721.464088,403.038674 C721.549787,405.929884 720.206727,408.677989 717.872928,410.38674 C715.02337,412.351213 711.605936,413.322075 708.149171,413.149171 C706.706773,413.138373 705.266859,413.02761 703.839779,412.81768 C702.237569,412.569061 700.248619,412.154696 697.845304,411.60221 C697.198108,412.046331 696.514235,412.434478 695.801105,412.762431 C695.358127,412.999417 694.866724,413.131715 694.364641,413.149171 C693.666279,413.18487 692.994978,412.875039 692.569061,412.320442 C692.08889,411.555856 691.902401,410.643036 692.044199,409.751381 L692.044199,409.751381 Z" id="Path"></path>
        </g>
    </g>
</svg>